<?xml version="1.0" standalone="no"?>
<!DOCTYPE svg PUBLIC "-//W3C//DTD SVG 1.1//EN" "http://www.w3.org/Graphics/SVG/1.1/DTD/svg11.dtd" >
<svg xmlns="http://www.w3.org/2000/svg">
<metadata>Generated by IcoMoon</metadata>
<defs>
<font id="AIFT" horiz-adv-x="1024">
<font-face units-per-em="1024" ascent="960" descent="-64" />
<missing-glyph horiz-adv-x="1024" />
<glyph unicode="&#x20;" horiz-adv-x="512" d="" />
<glyph unicode="&#xe900;" glyph-name="ask" d="M405.915 526.991h201.25v-181.125h-201.25v181.125zM902.096 960h-780.19c-67.227 0-121.906-54.686-121.906-121.905v-780.188c0-67.22 54.679-121.907 121.905-121.907h780.19c67.226 0 121.905 54.687 121.905 121.906v780.189c0 67.219-54.679 121.905-121.904 121.905zM245.634 100.772h-56.063v563.5h56.063v-563.5zM225.509 769.928l40.969 36.656c26.353-24.92 61.094-59.897 104.219-104.938l-46.719-40.969c-41.21 47.917-74.031 84.331-98.469 109.251zM405.915 251.709h-51.75v328.469h304.75v-287.5h-253v-40.969zM825.665 204.99c0-69.477-31.389-104.219-94.156-104.219-40.732 0-80.022 0.484-117.875 1.438-1.92 14.375-5.75 33.781-11.5 58.219 39.768-2.875 78.103-4.313 115-4.313 34.978 0 52.469 18.688 52.469 56.063v494.5h-355.063v53.906h411.125v-555.594z" />
<glyph unicode="&#xe901;" glyph-name="appen" d="M454.061 388.703h295.405v-109.25h-295.405v109.25zM454.061 665.422h281.030v-100.625h-281.030v100.625zM900.578 960h-780.191c-67.226 0-121.905-54.686-121.905-121.905v-780.188c0-67.22 54.679-121.906 121.904-121.906h780.19c67.227 0 121.906 54.687 121.906 121.905v780.189c0.001 67.219-54.679 121.905-121.904 121.905zM399.436 712.86h114.281c11.5 30.188 20.36 59.415 26.594 87.688l55.343-10.063c-9.107-27.554-18.928-53.429-29.469-77.625h222.094v-222.813h-53.188v27.313h-281.030v-81.219h348.593v-241.5h-53.188v37.375h-295.405v-42.406h-54.625v523.25zM226.217 787.61c35.455-41.688 72.352-88.406 110.688-140.156l-51.75-34.5c-31.148 47.915-65.648 95.353-103.5 142.313l44.562 32.343zM845.060 104.797l-244.375-3.594-156.327 4.313c-80.264 0.96-139.32 28.272-177.172 81.938-13.898-11.017-41.929-41.688-84.094-92l-30.906 61.094c29.946 27.071 59.656 53.188 89.125 78.344v250.843h-81.938v52.469h138v-314.454c34.5-42.165 84.93-64.446 151.297-66.844l165.671-3.234 254.438 6.469c-8.147-19.165-16.053-37.61-23.719-55.344z" />
<glyph unicode="&#xe902;" glyph-name="home" d="M971.998 516.786l-372.641 403.66c-23.235 25.1-54.063 38.806-87.357 38.806s-64.121-13.707-87.356-38.806l-372.642-403.66c-38.431-41.599-33.511-77.613-27.031-92.716 4.461-10.7 19.658-39.976 63.892-39.976h54.511v-310.466c0-70.42 48.707-136.879 117.737-136.879h146.558v328.598c0 35.322-5.138 54.84 29.268 54.84h150.126c34.405 0 29.268-19.517 29.268-54.84v-328.598h146.559c69.028 0 117.736 66.459 117.736 136.879v310.465h54.512c44.235 0 59.432 29.275 63.892 39.975 6.48 15.104 11.398 51.119-27.032 92.718z" />
<glyph unicode="&#xe903;" glyph-name="peple" d="M716.5 585.5c0-102.725-83.275-186-186-186s-186 83.275-186 186c0 102.725 83.275 186 186 186s186-83.275 186-186zM767.892 1c-190.412-74.063-354.486-52.818-399.913-38.056-103.935 33.777-202.17 101.33-227.239 154.889 90.001 121.447 234.383 200.167 397.152 200.167 154.13 0 291.773-70.587 382.367-181.197z" />
<glyph unicode="&#xe904;" glyph-name="downArrow" d="M990.352 690.669c15.789-20.239 17.113-45.607 2.956-56.66l-461.716-360.152c-3.194-2.503-13.455-8.664-15.198-10.601-17.203-19.016-41.938-24.723-55.279-12.685l-434.842 392.125c-13.341 12.050-10.261 37.26 6.942 56.32 17.204 19.049 41.938 24.735 55.325 12.696l395.747-356.857 451.83 352.452c14.201 11.052 38.483 3.588 54.235-16.638z" />
<glyph unicode="&#xe905;" glyph-name="personal" d="M515.479 961.27c-282.572 0-512.441-229.9-512.441-512.441 0-282.558 229.869-512.427 512.441-512.427 282.525 0 512.426 229.869 512.426 512.427 0 282.54-229.884 512.441-512.426 512.441zM810.878 69.792c-15.109 149.711-141.822 266.92-295.415 266.92-153.592 0-280.305-117.226-295.399-266.92-112.783 88.093-185.472 225.179-185.472 379.036 0 265.165 215.737 480.934 480.903 480.934 265.149 0 480.888-215.769 480.888-480.934-0.018-153.857-72.706-290.974-185.505-379.036zM511.596 726.571c-92.565 0-167.894-75.344-167.894-167.894s75.345-167.88 167.894-167.88c92.52 0 167.863 75.313 167.863 167.88s-75.344 167.894-167.863 167.894z" />
<glyph unicode="&#xe906;" glyph-name="project" d="M1016.917-64v378.667l-144.512-144.512-181.76 181.76-89.685-89.6 181.76-181.76-144.512-144.555h378.709zM1016.875 567.125v378.667h-378.667l144.555-144.512-296.619-297.259h-479.019v-126.208h530.688l334.507 333.867 144.555-144.555z" />
<glyph unicode="&#xe907;" glyph-name="call" d="M1015.655 88.049c0-31.807 0.038-63.616-0.012-95.426-0.054-37.063-21.593-58.402-58.796-58.344-394.181 0.606-747.814 245.439-887.414 614.535-40.61 107.37-60.704 218.576-61.232 333.333-0.176 38.497 20.905 59.573 59.475 59.591 62.307 0.031 124.613 0.018 186.921 0.003 40.628-0.007 60.725-19.395 61.318-59.727 0.929-63.229 10.156-125.24 26.606-186.232 0.68-2.517 1.186-5.184 2.416-7.429 7.964-14.53 5.372-28.4-2.387-41.952-3.277-5.724-7.753-10.522-12.41-15.176-37.817-37.775-75.434-75.754-113.553-113.222-5.889-5.789-5.928-9.542-2.079-16.421 80.583-144.011 188.757-261.175 333.037-343.354 7.95-4.531 16.265-8.432 24.068-13.195 5.423-3.311 8.874-2.474 13.346 2.040 36.906 37.296 73.853 74.556 111.287 111.319 18.491 18.164 40.983 24.152 65.954 15.991 63.365-20.707 128.268-31.588 194.937-32.366 38.385-0.451 58.489-21.177 58.512-59.521 0.020-31.483 0.006-62.964 0.006-94.447zM791.609 550.168c0-16.384-0.21-32.772 0.117-49.152 0.111-5.518-1.46-7.267-7.119-7.225-32.438 0.249-64.88 0.257-97.317 0-5.971-0.048-7.838 1.563-7.782 7.713 0.302 32.438 0.284 64.881 0.013 97.321-0.051 5.818 1.947 7.091 7.334 7.061 32.766-0.208 65.537-0.218 98.304 0.011 5.18 0.037 6.671-1.41 6.568-6.579-0.318-16.378-0.118-32.764-0.118-49.15zM960.208 605.779c16.046 0.004 32.102-0.323 48.133 0.167 6.259 0.19 7.508-1.77 7.455-7.665-0.296-32.416-0.262-64.835-0.025-97.254 0.039-5.43-1.264-7.291-7.001-7.244-32.743 0.267-65.492 0.258-98.234 0.012-5.715-0.042-7.076 1.846-7.039 7.294 0.233 32.744 0.229 65.492 0 98.235-0.036 5.206 1.518 6.651 6.615 6.563 16.697-0.289 33.4-0.108 50.096-0.108zM511.602 605.781c16.366 0 32.736-0.202 49.097 0.114 5.413 0.104 7.251-1.327 7.205-7.005-0.257-32.731-0.206-65.466-0.037-98.199 0.024-4.955-1.223-6.914-6.57-6.878-33.059 0.209-66.12 0.176-99.181 0.025-4.722-0.022-6.203 1.625-6.183 6.258 0.139 33.387 0.183 66.774-0.035 100.16-0.034 5.354 2.532 5.615 6.605 5.581 16.366-0.132 32.732-0.056 49.099-0.056z" />
<glyph unicode="&#xe908;" glyph-name="badComment" horiz-adv-x="957" d="M834.2 607.329c0 0 102.135 98.014 102.135 138.594 0 40.582-85.754 192.166-490.070 197.951-385.236 5.513-371.546-294.624-371.546-294.624 0.378-8.875 1.041-17.6 1.948-26.195-0.264-0.023-0.521-0.044-0.787-0.068 0-207.636 138.257-526.033 368.398-670.937 27.577 18.75 40.426 47.707 34.32 61.893-28.937 8.988-200.142 136.46-286.313 365.597 125.378-132.994 318.833-196.357 417.187-209.328 53.208-7.016 90.334 44.393 90.334 44.393l0.992 140.021c0 0 97.793 1.473 180.618 0 35.761-0.638 75.727 43.895 75.727 56.38-19.242 45.512-122.943 196.323-122.943 196.323zM627.139 428.281v-184.141c0 0-413.019 52.085-478.765 405.108 0 0-25.841 231.901 294.624 220.968 320.466-10.935 391.117-98.832 405.109-110.484 13.99-11.652-110.484-147.312-110.484-147.312l110.484-184.14h-220.968zM1.151 167.105c-0.806-19.986 1.882-47.17 2.078-65.553 65.27-0.1 202.141-8.776 223.631-111.195 36.765-6.68 62.497 12.459 71.2 27.242-38.366 111.625-210.86 153.505-296.909 149.506zM872.311 170.872c-138.897 0-318.234-62.516-318.234-167.829 0-30.371 66.22-4.793 66.22-4.793s67.649 108.623 257.195 103.821c37.484 20.682 38.083 50.224-5.181 68.801z" />
<glyph unicode="&#xe909;" glyph-name="checkedBad" horiz-adv-x="957" d="M834.2 607.329c0 0 102.135 98.014 102.135 138.594 0 40.582-85.754 192.166-490.070 197.951-385.236 5.513-371.546-294.624-371.546-294.624 0.378-8.875 1.041-17.6 1.948-26.195-0.264-0.023-0.521-0.044-0.787-0.068 0-207.636 138.257-526.033 368.398-670.937 27.577 18.75 40.426 47.707 34.32 61.893-28.937 8.988-200.142 136.46-286.313 365.597 125.378-132.994 318.833-196.357 417.187-209.328 53.208-7.016 90.334 44.393 90.334 44.393l0.992 140.021c0 0 97.793 1.473 180.618 0 35.761-0.638 75.727 43.895 75.727 56.38-19.242 45.512-122.943 196.323-122.943 196.323zM627.139 428.281v-184.141c0 0-413.019 52.085-478.765 405.108 0 0-25.841 231.901 294.624 220.968 320.466-10.935 391.117-98.832 405.109-110.484 13.99-11.652-110.484-147.312-110.484-147.312l110.484-184.14h-220.968zM1.151 167.105c-0.806-19.986 1.882-47.17 2.078-65.553 65.27-0.1 202.141-8.776 223.631-111.195 36.765-6.68 62.497 12.459 71.2 27.242-38.366 111.625-210.86 153.505-296.909 149.506zM872.311 170.872c-138.897 0-318.234-62.516-318.234-167.829 0-30.371 66.22-4.793 66.22-4.793s67.649 108.623 257.195 103.821c37.484 20.682 38.083 50.224-5.181 68.801zM260.5 871.5h240v-52h-240v52zM478.571 903.5h125.929v-84h-125.929v84zM220.5 861.5h136v-102h-136v102zM151.859 845.5h136.642v-126h-136.642v126zM116.5 759.5h425.035v-148h-425.035v148zM329.018 903.5h319.482v-244h-319.482v244zM560.5 871.5h218.822v-212h-218.822v212zM708.5 861.5h70.822v-176h-70.822v176zM164.5 659.5h614.822v-116.579h-614.822v116.579zM116.5 685.5h144v-114h-144v114zM164.5 542.922h644v-94.921h-644v94.921zM207.413 495.461h669.087v-79.961h-669.087v79.961zM235.524 455.481h412.977v-87.98h-412.977v87.98zM288.5 398.906h381.411v-63.405h-381.411v63.405zM356.5 367.203h313.411v-103.703h-313.411v103.703zM500.5 276.544h169.411v-37.044h-169.411v37.044zM708.5 845.5h144v-160h-144v160zM708.5 782.5h125.7v-175.171h-125.7v175.171z" />
<glyph unicode="&#xe90a;" glyph-name="answer" d="M337.378 265.782h346.208v-81.994h-346.208v81.994zM376.858 448h270.283c-44.557 24.294-88.068 56.655-130.586 97.182-42.518-36.444-89.114-68.855-139.697-97.182zM902.096 960h-780.19c-67.227 0-121.906-54.686-121.906-121.905v-780.188c0-67.22 54.679-121.907 121.905-121.907h780.19c67.226 0 121.905 54.687 121.905 121.906v780.189c0 67.219-54.679 121.905-121.904 121.905zM270.566 812.427l81.998-9.11c-8.115-20.262-17.225-39.479-27.333-57.699h191.326v-66.814h-230.806c-24.296-38.483-55.709-75.922-94.146-112.365-8.112 12.146-25.338 31.365-51.627 57.702 58.699 52.622 102.212 115.401 130.588 188.286zM416.338 596.808l-60.738-42.517c-18.222 28.329-38.484 54.665-60.739 78.96l57.701 36.44c10.106-10.152 24.296-26.336 42.519-48.59 10.107-10.152 17.176-18.22 21.257-24.293zM765.579 83.572h-81.995v39.479h-346.206v-39.479h-81.998v249.025h510.198l0.001-249.025zM868.836 405.482c-10.157-18.223-17.227-32.409-21.263-42.519-68.854 20.216-125.557 43.514-170.064 69.85v-45.554h-334.058v39.479c-48.591-24.295-104.3-48.59-167.028-72.884-4.080 8.065-9.11 18.221-15.186 30.368-10.152 18.222-17.224 32.36-21.259 42.519 153.837 48.589 269.239 112.363 346.207 191.323l75.923-6.071c-2.038 1.991-6.072 5.027-12.146 9.109-22.303 14.143-37.486 22.254-45.553 24.295 44.51 46.549 78.958 102.21 103.253 167.028l78.962-9.11c-8.114-20.262-17.226-39.479-27.33-57.7h209.547v-66.813h-245.994c-14.188-20.262-30.37-42.517-48.591-66.813h6.071l-18.222-21.26c78.96-70.892 186.247-121.477 321.911-151.844-4.077-8.111-9.109-19.263-15.18-33.403zM780.766 593.771l-60.737-39.479c-20.263 28.329-41.521 55.662-63.773 81.998l57.699 36.442c8.067-10.153 20.218-25.34 36.442-45.554 14.138-14.188 24.295-25.341 30.369-33.407z" />
<glyph unicode="&#xe90b;" glyph-name="likes" d="M512 158.379l302.123-182.357-80.171 343.68 266.923 231.253-351.445 29.824-137.429 324.096-137.387-324.096-351.488-29.824 266.923-231.253-80.171-343.68 302.123 182.357z" />
<glyph unicode="&#xe90c;" glyph-name="close" d="M1024 806.4l-153.6 153.6-358.4-358.4-358.4 358.4-153.6-153.6 358.4-358.4-358.4-358.4 153.6-153.6 358.4 358.4 358.4-358.4 153.6 153.6-358.4 358.4 358.4 358.4z" />
<glyph unicode="&#xe90d;" glyph-name="praise" horiz-adv-x="870" d="M446.019 154.878c201.459 0 341.524 118.97 399.764 326.144 25.369 90.232 24.258 197.198 24.258 318.352 0 43.623-266.758-32.291-266.758-32.291s-81.65 181.325-163.52 181.325c-81.874 0-176.821-183.958-176.821-183.958s-254.335 93.981-254.335 41.468c0-129.818-2.023-231.070 10.080-331.507 56.957-212.49 210.224-319.533 427.332-319.533zM79.472 729.91c27.291 34.71 226.823-53.541 226.823-53.541s73.406 161.74 133.327 161.74 127.599-162.946 127.599-162.946 207.063 92.838 232.102 53.861c0-91.909 1.484-175.711-22.271-247.415-51.784-156.291-172.802-255.094-332.848-255.094-170.866 0-296.885 90.347-347.806 251.801-22.312 70.752-16.926 155.155-16.926 251.594zM514.459-24.018c32.582-11.644 50.955-6.857 71.303-2.95 56.93 96.253 144.652 116.676 268.574 121.281 6.070 21.032 19.063 36.18 12.109 57.115-77.173 2.351-273.642 4.435-351.986-175.446zM401.733-59.564l72.080-1.752 0.782 214.875-71.601 1.528-1.261-214.651zM8.448 151.234c-17.114-19.556-3.51-53.288 0-68.063 131.632 30.51 245.948-48.105 280.094-111.097 17.12 0.193 60.346 5.569 75.8 11.044-2.351 56.642-146.591 189.138-355.894 168.116z" />
<glyph unicode="&#xe90e;" glyph-name="ok" d="M156.572 612.798l313.593-423.27-150.862-111.77-313.593 423.269 150.862 111.771zM256.264 266.187l650.913 477.869 111.114-151.35-650.914-477.87-111.113 151.351z" />
<glyph unicode="&#xe90f;" glyph-name="checkedPraise" horiz-adv-x="870" d="M446.019 154.878c201.459 0 341.524 118.97 399.764 326.144 25.369 90.232 24.258 197.198 24.258 318.352 0 43.623-266.758-32.291-266.758-32.291s-81.65 181.325-163.52 181.325c-81.874 0-176.821-183.958-176.821-183.958s-254.335 93.981-254.335 41.468c0-129.818-2.023-231.070 10.080-331.507 56.957-212.49 210.224-319.533 427.332-319.533zM79.472 729.91v-18.41h-0.058c0.035 6.088 0.058 12.223 0.058 18.41zM514.459-24.018c32.582-11.644 50.955-6.857 71.303-2.95 56.93 96.253 144.652 116.676 268.574 121.281 6.070 21.032 19.063 36.18 12.109 57.115-77.173 2.351-273.642 4.435-351.986-175.446zM401.733-59.564l72.079-1.752 0.782 214.875-71.601 1.528zM8.448 151.234c-17.114-19.556-3.51-53.288 0-68.063 131.632 30.51 245.948-48.105 280.094-111.097 17.12 0.193 60.346 5.569 75.8 11.044-2.351 56.642-146.591 189.138-355.894 168.116z" />
<glyph unicode="&#xe910;" glyph-name="add" d="M984.155 487.346c-4.617 0-8.998-0.945-13.115-2.414v2.414h-419.694v419.692h-2.413c1.47 4.119 2.413 8.499 2.413 13.116 0 21.719-17.627 39.346-39.346 39.346-21.746 0-39.346-17.627-39.346-39.346 0-4.617 0.945-8.997 2.414-13.116h-2.414v-419.692h-419.692v-2.414c-4.119 1.469-8.499 2.414-13.116 2.414-21.744 0-39.346-17.627-39.346-39.346s17.602-39.346 39.346-39.346c4.617 0 8.997 0.943 13.116 2.413v-2.413h419.692v-419.692h2.414c-1.469-4.118-2.414-8.499-2.414-13.116 0-21.719 17.601-39.346 39.346-39.346 21.719 0 39.346 17.627 39.346 39.346 0 4.617-0.943 8.998-2.413 13.116h2.413v419.693h419.693v2.413c4.117-1.47 8.498-2.413 13.115-2.413 21.719 0 39.346 17.627 39.346 39.346 0 21.718-17.627 39.345-39.345 39.345z" />
<glyph unicode="&#xe911;" glyph-name="lessen" d="M1023.25 410.496c0-20.713-16.791-37.504-37.504-37.504h-947.492c-20.713 0-37.504 16.791-37.504 37.504v0c0 20.713 16.791 37.504 37.504 37.504h947.492c20.713 0 37.504-16.791 37.504-37.504v0z" />
<glyph unicode="&#xe912;" glyph-name="expect" d="M511.999-61.367c-68.754 0-135.464 13.474-198.274 40.039-60.655 25.655-115.128 62.381-161.9 109.153s-83.498 101.245-109.154 161.901c-26.569 62.809-40.039 129.52-40.039 198.274s13.47 135.464 40.038 198.273c25.656 60.658 62.38 115.13 109.153 161.902 46.773 46.774 101.244 83.499 161.901 109.155 62.812 26.565 129.521 40.037 198.275 40.037s135.464-13.471 198.273-40.037c60.657-25.655 115.129-62.379 161.9-109.154 46.774-46.772 83.499-101.242 109.153-161.902 26.567-62.809 40.039-129.518 40.039-198.272 0-57.028-9.361-113.022-27.818-166.436-17.829-51.603-43.791-99.821-77.157-143.318-0.964-1.287-9.213-12.212-17.622-21.319-7.346-7.957-19.75-8.45-27.706-1.106-7.958 7.344-8.451 19.749-1.107 27.706 7.354 7.965 15.039 18.211 15.114 18.315l0.146 0.192c30.827 40.166 54.805 84.692 71.271 132.341 17.027 49.281 25.663 100.971 25.663 153.628 0 63.476-12.427 125.047-36.94 182.997-23.678 55.983-57.579 106.265-100.765 149.45-43.184 43.185-93.466 77.086-149.45 100.767-57.949 24.51-119.519 36.937-182.997 36.937s-125.048-12.427-183-36.94c-55.981-23.678-106.265-57.581-149.448-100.765-43.186-43.184-77.085-93.465-100.765-149.45-24.512-57.949-36.938-119.52-36.938-182.999s12.427-125.045 36.937-182.999c23.68-55.98 57.581-106.265 100.767-149.45 43.183-43.184 93.465-77.084 149.448-100.764 57.951-24.513 119.52-36.939 183-36.939 76.654 0 152.703 18.847 219.942 54.505 6.238 3.549 82.875 46.379 154.341 51.792 10.796 0.822 20.215-7.274 21.031-18.073 0.815-10.797-7.273-20.213-18.072-21.028-64.22-4.864-137.357-46.455-138.088-46.874l-0.56-0.31c-72.942-38.747-155.447-59.229-238.592-59.229zM327.146 524.078c-30.53 0-55.364 24.837-55.364 55.365 0 30.53 24.834 55.365 55.364 55.365s55.365-24.836 55.365-55.365c0-30.528-24.836-55.365-55.365-55.365zM327.146 595.597c-8.907 0-16.153-7.245-16.153-16.153 0-8.905 7.246-16.151 16.153-16.151 8.906 0 16.151 7.246 16.151 16.151 0.001 8.907-7.245 16.153-16.151 16.153zM683.912 524.078c-30.531 0-55.37 24.837-55.37 55.365 0 30.53 24.84 55.365 55.37 55.365 30.528 0 55.362-24.836 55.362-55.365s-24.835-55.365-55.362-55.365zM683.912 595.597c-8.909 0-16.156-7.245-16.156-16.153 0-8.905 7.247-16.151 16.156-16.151 8.905 0 16.15 7.246 16.15 16.151 0.001 8.907-7.245 16.153-16.15 16.153zM508.358 131.89c-96.635 0-187.528 42.657-249.375 117.031-6.925 8.327-5.786 20.687 2.54 27.612s20.688 5.784 27.61-2.541c54.375-65.387 134.277-102.889 219.225-102.889 45.025 0 88.090 10.189 127.995 30.285 38.078 19.172 71.982 47.229 98.052 81.127 6.604 8.582 18.912 10.189 27.494 3.589 8.583-6.603 10.191-18.911 3.588-27.494-29.636-38.54-68.19-70.438-111.497-92.246-45.428-22.874-94.426-34.474-145.632-34.474z" />
<glyph unicode="&#xe913;" glyph-name="remove2" d="M512 955.307c-280.021 0-507.307-227.285-507.307-507.307s227.285-507.349 507.307-507.349c280.021 0 507.349 227.328 507.349 507.349s-227.328 507.307-507.349 507.307zM765.653 397.312h-507.307v101.419h507.349v-101.419z" />
<glyph unicode="&#xe914;" glyph-name="finish" d="M512 960c-282.752 0-512-229.205-512-512s229.248-512 512-512c282.709 0 512 229.248 512 512s-229.248 512-512 512zM375.253 161.963l-238.507 238.507 60.587 60.16 177.92-177.92 451.797 451.413 60.16-60.16-511.957-512z" />
<glyph unicode="&#xe915;" glyph-name="custom" d="M510.272 829.44c-159.168 0-288.191-126.399-288.191-282.304s129.023-282.304 288.191-282.304 288.192 126.399 288.192 282.304c-0.064 155.904-129.024 282.304-288.192 282.304v0zM177.472 438.72v260.672c-3.647 0-7.296-0.128-10.816-0.448 59.072 128.256 190.591 217.6 343.616 217.6s284.608-89.344 343.616-217.6c-3.584 0.257-7.168 0.448-10.816 0.448v-260.672c73.473 0 133.12 58.368 133.12 130.304 0 48.896-27.52 91.456-68.16 113.792-57.216 161.344-213.44 277.184-397.76 277.184s-340.479-115.84-397.76-277.185c-40.64-22.271-68.16-64.896-68.16-113.728 0-71.999 59.584-130.367 133.12-130.367v0zM797.823 289.28c-75.328-68.863-176.384-111.040-287.552-111.040-110.976 0-211.904 41.984-287.168 110.656-134.655-67.84-223.103-188.737-223.103-352.896h1024c0 164.48-90.049 285.504-226.177 353.28v0z" />
<glyph unicode="&#xe916;" glyph-name="satisfied" d="M512 959.019c-281.79 0-511.020-229.229-511.020-511.018s229.229-511.021 511.020-511.021c281.788 0 511.018 229.232 511.018 511.020 0 281.79-229.23 511.019-511.018 511.019zM512 8.268c-242.475 0-439.732 197.26-439.732 439.733s197.258 439.732 439.732 439.732 439.732-197.258 439.732-439.731-197.257-439.734-439.732-439.734zM367.198 495.576c25.020 0 45.217 31.735 45.217 70.92 0 4.276-0.341 8.42-0.813 12.459-4.065-6.244-9.625-10.149-15.789-10.149-12.484 0-22.556 15.868-22.556 35.458 0 11.935 3.986 21.953 9.729 28.353-4.93 2.912-10.202 4.695-15.788 4.695-24.995 0-45.218-31.762-45.218-70.815 0.001-39.184 20.223-70.921 45.218-70.921zM654.416 495.576c24.995 0 45.242 31.735 45.242 70.92 0 4.276-0.34 8.42-0.813 12.485-4.066-6.27-9.625-10.176-15.791-10.176-12.483 0-22.58 15.868-22.58 35.458 0 11.935 3.986 21.953 9.757 28.353-4.96 2.885-10.229 4.695-15.815 4.695-24.942 0-45.189-31.762-45.189-70.815 0-39.183 20.247-70.92 45.189-70.92zM808.241 369.214c-32.681 20.825-53.793-4.198-53.793-4.198 20.615 1.757 34.699-2.229 44.955-8.104-66.094-94.891-170.165-156.21-287.4-156.21-117.579 0-221.991 61.661-288.033 157.051 10.15 5.377 23.789 8.917 43.407 7.266 0 0-21.14 25.021-53.792 4.198-12.615-8.026-21.952-26.7-15.685-45.899 0 0 3.2 22.162 25.78 34.28 57.045-110.052 164.763-184.276 288.321-184.276 123.218 0 230.673 73.831 287.822 183.385 21.060-12.327 24.104-33.389 24.104-33.389 6.293 19.195-3.071 37.871-15.686 45.896z" />
<glyph unicode="&#xe917;" glyph-name="nav-left" d="M814.464 833.536l-118.443 118.443-504.021-503.979 504.021-504.021 118.443 118.443-384.725 385.579 384.725 385.536z" />
<glyph unicode="&#xe918;" glyph-name="nextPage" horiz-adv-x="443" d="M0 948.022v-1012.022l442.759 506.012-442.759 506.010z" />
<glyph unicode="&#xe919;" glyph-name="previousPage" horiz-adv-x="443" d="M0 442.012l442.759-506.012v1012.022l-442.759-506.010z" />
<glyph unicode="&#xe91a;" glyph-name="noPraise" d="M1009.323 542.165l-357.547 30.805-139.776 329.259-139.733-329.728-357.547-30.336 271.488-235.264-81.579-349.568 307.371 185.515 307.328-185.515-81.024 349.568 271.019 235.264zM512 235.776l-186.965-112.896 49.749 212.864-165.12 143.189 217.813 18.901 84.523 200.491 85.035-200.875 217.771-18.901-165.077-143.232 49.707-212.821-187.435 113.28z" />
<glyph unicode="&#xe91b;" glyph-name="needHelp" d="M913.792 950.229h-803.584c-55.253 0-99.968-45.227-99.968-100.437l-0.469-904.021 200.875 200.875h703.104c55.211 0 100.437 45.227 100.437 100.437v602.709c0.043 55.211-45.184 100.437-100.395 100.437zM562.219 498.219h-100.437v301.355h100.437v-301.355zM562.219 297.344h-100.437v100.437h100.437v-100.437z" />
<glyph unicode="&#xe91c;" glyph-name="search" d="M1001.725-5.1l-306.648 310.713c67.204 70.662 93.266 157.496 93.266 262.837 0 216.812-167.416 392.177-382.74 392.177-215.293 0-390.478-176.397-390.478-393.208 0-216.814 172.454-383.65 387.749-383.65 89.896 0 175.271 21.508 241.324 73.088l308.861-312.926c5.646-5.705 13.049-8.559 20.451-8.559 7.404 0 19.659 8.736 25.302 14.439 11.289 11.352 14.201 33.68 2.913 45.089zM76.837 572.274c0 179.916 145.329 326.215 323.941 326.215 178.642 0 323.973-146.299 323.973-326.215 0-179.859-145.333-326.218-323.973-326.218-178.613 0-323.941 146.359-323.941 326.218z" />
<glyph unicode="&#xe91d;" glyph-name="servicerequest" d="M748.853 634.905l-463.1-0.438c-25.48 0-46.143 20.636-46.143 46.143 0 25.48 20.636 46.143 46.143 46.143l463.1 0.438c25.48 0 46.143-20.663 46.143-46.143 0-25.507-20.663-46.143-46.143-46.143zM748.853 450.36l-463.1-0.438c-25.48 0-46.143 20.663-46.143 46.143 0 25.507 20.636 46.143 46.143 46.143l463.1 0.438c25.48 0 46.143-20.663 46.143-46.143 0-25.507-20.663-46.143-46.143-46.143zM912.215 273.506c-0.684-0.493-1.286-1.149-2.025-1.615l-308.058-308.851c-8.293-12.507-22.387-20.745-38.48-20.745-6.432 0-12.562 1.341-18.118 3.722-0.301 0.109-0.547 0.301-0.794 0.438-7.69 3.476-19.514 14.587-14.669 9.743-0.766 0.739-4.954 7.116-6.322 9.524-5.145 8.703-7.28 18.309-6.213 28.052l-0.301 225.953h0.301v46.143c0 50.96 41.299 92.259 92.259 92.259h49.017v0.164l181.589 0.219-0.301 424.264c-1.834 68.421-21.594 81.64-91.875 81.64l42.12 1.040-533.327-0.274 29.831-0.739c-74.031 0-92.259-13.903-92.259-92.259v-643.594c0-78.328 18.255-92.259 92.259-92.259l90.069-1.122c25.48 0 46.143-20.636 46.143-46.143 0-25.48-20.636-46.143-46.143-46.143l-136.185-0.246v0.274h-46.116c-50.96 0-92.259 41.299-92.259 92.259v48.989h-0.055l-0.356 732.349h0.411v48.99c0 49.564 39.164 89.686 88.181 91.848l650.244 0.383c49.427-0.192 89.358-39.274 91.492-88.208l0.41-547.175c-3.803 17.105 13.631-27.341-20.47-48.88zM703.148 265.898c-103.124 0.848-92.423 11.002-93.627-90.014l0.082-74.688 164.538 164.922-70.993-0.22zM840.045 865.511h-0.219l0.219-30.871v30.871z" />
<glyph unicode="&#xe91e;" glyph-name="lastPage" horiz-adv-x="639" d="M7.001 947.555v-1011.555l442.554 505.78-442.554 505.775zM512.778 947.556h63.221c34.918 0 63.223-28.305 63.223-63.222v-885.108c0-34.92-28.305-63.226-63.223-63.226h-63.221c-34.917 0-63.222 28.306-63.222 63.226v885.108c0 34.917 28.304 63.222 63.222 63.222z" />
<glyph unicode="&#xe91f;" glyph-name="firstPage" horiz-adv-x="639" d="M195.665 454.225l442.554-505.779v1011.555l-442.554-505.776zM70.222 947.556h63.221c34.918 0 63.223-28.305 63.223-63.222v-885.108c0-34.92-28.305-63.226-63.223-63.226h-63.221c-34.918 0-63.222 28.306-63.222 63.226v885.108c0 34.917 28.304 63.222 63.222 63.222z" />
<glyph unicode="&#xe920;" glyph-name="rightArrow" horiz-adv-x="593" d="M15.098 22.475l467.508 425.523-467.508 425.525c-18.577 16.908-20.24 45.026-3.711 62.803s44.982 18.483 63.56 1.573l495.737-451.225c3.862-2.144 7.444-4.904 10.589-8.291 7.938-8.538 11.668-19.464 11.354-30.387 0.313-10.92-3.417-21.844-11.354-30.384-3.144-3.383-6.723-6.143-10.581-8.286l-495.746-451.228c-18.579-16.909-47.034-16.204-63.562 1.573-16.526 17.777-14.863 45.898 3.714 62.804z" />
<glyph unicode="&#xe921;" glyph-name="other" horiz-adv-x="1061" d="M432.393 405.564h-379.603c-19.512 0-35.476-15.964-35.476-35.476v-379.603c0-19.512 15.964-35.476 35.476-35.476h379.603c19.512 0 35.476 15.964 35.476 35.476v377.83c0 21.286-15.964 37.251-35.476 37.251v0-0.002zM1010.666 405.564h-379.603c-19.512 0-35.476-15.964-35.476-35.476v-379.603c0-19.512 15.964-35.476 35.476-35.476h379.603c19.512 0 35.476 15.964 35.476 35.476v377.83c0 21.286-15.964 37.251-35.476 37.251v0-0.002zM1010.666 944.814h-379.603c-19.512 0-35.476-15.964-35.476-35.476v-377.83c0-19.512 15.964-35.476 35.476-35.476h379.603c19.512 0 35.476 15.964 35.476 35.476v377.83c0 19.511-15.964 35.476-35.476 35.476 0 0 0 0 0 0zM991.154 584.723c0-19.512-15.964-35.476-35.476-35.476h-271.397c-19.512 0-35.476 15.964-35.476 35.476v269.625c0 19.512 15.964 35.476 35.476 35.476h271.398c19.512 0 35.476-15.964 35.476-35.476v-269.625zM432.393 944.814h-379.603c-19.512 0-35.476-15.964-35.476-35.476v-377.83c0-19.512 15.964-35.476 35.476-35.476h379.603c19.512 0 35.476 15.964 35.476 35.476v377.83c-0.001 19.511-15.965 35.476-35.476 35.476 0 0 0 0 0 0z" />
<glyph unicode="&#xe922;" glyph-name="complaint" d="M252.655 90.099v853.401h661.205v-853.401h-661.205zM323.817 279.5h438.515v109.084h-438.515v-109.084zM617.693 656.816h-291.589v-93.316h291.589v93.316zM840.382 872.418h-218.112l218.112-215.601v215.601zM840.382 528.598h-516.565v-107.098h516.565v107.098zM840.382 244.116h-516.565v-108.616h516.565v108.616zM840.382-52.167h-734.679v924.585h73.475v-855.652h661.203v-68.933z" />
<glyph unicode="&#xe923;" glyph-name="problem" d="M427.595 257.508h149.993v-129.471h-149.993v129.471zM427.595 775.393h149.993v-388.415h-149.993v388.415zM512.526-57.527c278.041 0 505.527 227.487 505.527 505.527s-227.488 505.527-505.527 505.527-505.527-227.488-505.527-505.527 227.488-505.527 505.527-505.527z" />
<glyph unicode="&#xe924;" glyph-name="newdemand" d="M952.714 407.216c-32.45 32.428-80.22 35.351-112.671 2.916l-92.753-92.704c-24.145-24.108-53.241-24.157-70.227-4.117-11.255 13.276-6.811 54.228-3.662 80.209l46.52 382.359c4.158 34.156-20.179 67.163-54.357 71.312-34.169 4.155-65.24-22.114-69.396-56.265l-51.311-300.322c-2.684-7.47-8.437-8.761-9.081 1.293l-17.464 390.348c0 34.412-27.906 62.301-62.329 62.301-34.428 0-62.333-27.889-62.333-62.301l-1.228-393.266c0.321-4.541-3.569-5.839-4.276-0.656l-55.451 306.977c-6.121 33.863-38.546 58.302-72.419 52.186-33.88-6.117-56.38-40.469-50.265-74.321l49.379-359.233c0.049-6.395-2.092-10.045-5.133-1.852l-73.67 196.95c-11.521 32.423-47.161 51.317-79.602 39.8-32.435-11.517-49.395-49.084-37.871-81.504l129.142-421.91c0.674-2.331 1.384-4.638 2.117-6.935l0.273-0.869c0.021-0.072 0.055-0.132 0.075-0.199 35.765-110.080 139.208-189.66 261.262-189.66 78.134 0 159.29 27.542 221.069 74.919l0.006 0.006c66.728 40.166 280.508 269.995 280.508 269.995 32.449 32.437 27.604 82.103-4.852 114.543zM641.903 226.906h-146.253v-146.97c0-9.084-2.756-16.49-8.244-22.226-5.501-5.734-12.67-8.602-21.508-8.602-8.849 0-15.895 2.744-21.149 8.244-5.265 5.489-7.886 13.017-7.886 22.583v146.97h-146.97c-19.603 0-29.393 9.433-29.393 28.319 0 18.876 9.791 28.318 29.393 28.318h146.97v148.406c0 9.556 2.621 17.083 7.886 22.584 5.254 5.489 12.3 8.244 21.149 8.244 8.839 0 16.008-2.866 21.508-8.602 5.49-5.736 8.244-13.15 8.244-22.226v-148.404h146.252c19.593 0 29.395-9.444 29.395-28.318 0-18.886-9.802-28.32-29.394-28.32z" />
<glyph unicode="&#xe925;" glyph-name="consult" d="M512.862 950.22c-264.424 0-479.569-193.834-479.569-432.020 0-140.1 75.729-271.762 202.656-352.744l-0.091-213.899 188.223 142.031c29.189-4.893 59.029-7.43 88.781-7.43 264.424 0 479.513 193.812 479.513 432.042 0.001 238.185-215.090 432.020-479.513 432.020zM763.726 410.806c0-23.161-12.093-41.348-27.522-41.348h-442.031c-15.389 0-27.483 18.188-27.483 41.347v14.643c0 23.217 12.093 41.38 27.483 41.38h442.030c15.43 0 27.522-18.163 27.522-41.38v-14.643h0.001zM844.875 610.776c0-23.594-15.654-42.77-34.933-42.77h-589.466c-19.29 0-34.959 19.176-34.959 42.77v15.089c0 23.655 15.669 42.801 34.959 42.801h589.465c19.279 0 34.933-19.146 34.933-42.801v-15.089z" />
</font>
</defs>
</svg>
